<svg width="24" height="24" viewBox="0 0 24 24" fill="none" xmlns="http://www.w3.org/2000/svg">
<path d="M16 11C16.2833 11 16.521 10.904 16.713 10.712C16.905 10.52 17.0007 10.2827 17 10C16.9993 9.71733 16.9033 9.48 16.712 9.288C16.5207 9.096 16.2833 9 16 9C15.7167 9 15.4793 9.096 15.288 9.288C15.0967 9.48 15.0007 9.71733 15 10C14.9993 10.2827 15.0953 10.5203 15.288 10.713C15.4807 10.9057 15.718 11.0013 16 11ZM8 9H13V7H8V9ZM4.5 21C3.93333 19.1 3.375 17.2043 2.825 15.313C2.275 13.4217 2 11.484 2 9.5C2 7.96667 2.53333 6.66667 3.6 5.6C4.66667 4.53333 5.96667 4 7.5 4H12.5C12.9833 3.36667 13.571 2.875 14.263 2.525C14.955 2.175 15.7007 2 16.5 2C16.9167 2 17.271 2.146 17.563 2.438C17.855 2.73 18.0007 3.084 18 3.5C18 3.6 17.9873 3.7 17.962 3.8C17.9367 3.9 17.9077 3.99167 17.875 4.075C17.8083 4.25833 17.746 4.446 17.688 4.638C17.63 4.83 17.584 5.02567 17.55 5.225L19.825 7.5H22V14.475L19.175 15.4L17.5 21H12V19H10V21H4.5ZM6 19H8V17H14V19H16L17.55 13.85L20 13.025V9.5H19L15.5 6C15.5 5.66667 15.521 5.346 15.563 5.038C15.605 4.73 15.6673 4.41733 15.75 4.1C15.2667 4.23333 14.8417 4.46267 14.475 4.788C14.1083 5.11333 13.8417 5.51733 13.675 6H7.5C6.53333 6 5.70833 6.34167 5.025 7.025C4.34167 7.70833 4 8.53333 4 9.5C4 11.1333 4.225 12.7293 4.675 14.288C5.125 15.8467 5.56667 17.4173 6 19Z" fill="#457BEE"/>
</svg>
