<svg width="31" height="34" viewBox="0 0 31 34" fill="none" xmlns="http://www.w3.org/2000/svg">
<path d="M3.80914 29.5209H9.52286V19.998C9.52286 19.4584 9.70569 19.0064 10.0714 18.6419C10.437 18.2775 10.8891 18.0947 11.4274 18.0934H19.0457C19.5853 18.0934 20.038 18.2763 20.4037 18.6419C20.7693 19.0076 20.9516 19.4596 20.9503 19.998V29.5209H26.664V12.3797L15.2366 3.80914L3.80914 12.3797V29.5209ZM0 29.5209V12.3797C0 11.7766 0.135224 11.2052 0.405673 10.6656C0.676122 10.126 1.04878 9.68157 1.52366 9.3324L12.9511 0.761829C13.6177 0.253943 14.3795 0 15.2366 0C16.0936 0 16.8555 0.253943 17.5221 0.761829L28.9495 9.3324C29.4256 9.68157 29.7989 10.126 30.0694 10.6656C30.3398 11.2052 30.4744 11.7766 30.4731 12.3797V29.5209C30.4731 30.5684 30.0998 31.4654 29.3533 32.212C28.6067 32.9586 27.7102 33.3313 26.664 33.33H19.0457C18.5061 33.33 18.0541 33.1472 17.6897 32.7815C17.3252 32.4158 17.1424 31.9638 17.1411 31.4254V21.9026H13.332V31.4254C13.332 31.9651 13.1492 32.4177 12.7835 32.7834C12.4178 33.1491 11.9658 33.3313 11.4274 33.33H3.80914C2.76163 33.33 1.86521 32.9573 1.11989 32.212C0.374565 31.4667 0.00126971 30.5696 0 29.5209Z" fill="white"/>
</svg>
