<svg width="50" height="50" viewBox="0 0 50 50" fill="none" xmlns="http://www.w3.org/2000/svg">
<path d="M28.125 21.875C28.125 23.5326 27.4665 25.1223 26.2944 26.2944C25.1223 27.4665 23.5326 28.125 21.875 28.125C20.2174 28.125 18.6277 27.4665 17.4556 26.2944C16.2835 25.1223 15.625 23.5326 15.625 21.875C15.625 20.2174 16.2835 18.6277 17.4556 17.4556C18.6277 16.2835 20.2174 15.625 21.875 15.625C23.5326 15.625 25.1223 16.2835 26.2944 17.4556C27.4665 18.6277 28.125 20.2174 28.125 21.875ZM25 21.875C25 21.0462 24.6708 20.2513 24.0847 19.6653C23.4987 19.0792 22.7038 18.75 21.875 18.75C21.0462 18.75 20.2513 19.0792 19.6653 19.6653C19.0792 20.2513 18.75 21.0462 18.75 21.875C18.75 22.7038 19.0792 23.4987 19.6653 24.0847C20.2513 24.6708 21.0462 25 21.875 25C22.7038 25 23.4987 24.6708 24.0847 24.0847C24.6708 23.4987 25 22.7038 25 21.875ZM3.125 13.2812C3.125 11.125 4.875 9.375 7.03125 9.375H36.7188C38.875 9.375 40.625 11.125 40.625 13.2812V30.4688C40.625 32.625 38.875 34.375 36.7188 34.375H7.03125C4.875 34.375 3.125 32.625 3.125 30.4688V13.2812ZM7.03125 12.5C6.82405 12.5 6.62534 12.5823 6.47882 12.7288C6.33231 12.8753 6.25 13.074 6.25 13.2812V15.625H7.8125C8.2269 15.625 8.62433 15.4604 8.91735 15.1674C9.21038 14.8743 9.375 14.4769 9.375 14.0625V12.5H7.03125ZM6.25 30.4688C6.25 30.9 6.6 31.25 7.03125 31.25H9.375V29.6875C9.375 29.2731 9.21038 28.8757 8.91735 28.5826C8.62433 28.2896 8.2269 28.125 7.8125 28.125H6.25V30.4688ZM12.5 29.6875V31.25H31.25V29.6875C31.25 28.4443 31.7439 27.252 32.6229 26.3729C33.502 25.4939 34.6943 25 35.9375 25H37.5V18.75H35.9375C34.6943 18.75 33.502 18.2561 32.6229 17.3771C31.7439 16.498 31.25 15.3057 31.25 14.0625V12.5H12.5V14.0625C12.5 15.3057 12.0061 16.498 11.1271 17.3771C10.248 18.2561 9.0557 18.75 7.8125 18.75H6.25V25H7.8125C9.0557 25 10.248 25.4939 11.1271 26.3729C12.0061 27.252 12.5 28.4443 12.5 29.6875ZM34.375 31.25H36.7188C36.9259 31.25 37.1247 31.1677 37.2712 31.0212C37.4177 30.8747 37.5 30.676 37.5 30.4688V28.125H35.9375C35.5231 28.125 35.1257 28.2896 34.8326 28.5826C34.5396 28.8757 34.375 29.2731 34.375 29.6875V31.25ZM37.5 15.625V13.2812C37.5 13.074 37.4177 12.8753 37.2712 12.7288C37.1247 12.5823 36.9259 12.5 36.7188 12.5H34.375V14.0625C34.375 14.4769 34.5396 14.8743 34.8326 15.1674C35.1257 15.4604 35.5231 15.625 35.9375 15.625H37.5ZM14.0625 40.625C13.0726 40.6254 12.1079 40.3123 11.3068 39.7307C10.5057 39.1492 9.90935 38.3289 9.60312 37.3875C10.0365 37.4625 10.4812 37.5 10.9375 37.5H36.7188C38.5836 37.5 40.372 36.7592 41.6906 35.4406C43.0092 34.122 43.75 32.3336 43.75 30.4688V15.8906C44.6643 16.2139 45.4558 16.8128 46.0155 17.6047C46.5752 18.3967 46.8755 19.3427 46.875 20.3125V30.4688C46.875 31.8025 46.6123 33.1232 46.1019 34.3554C45.5915 35.5876 44.8434 36.7072 43.9003 37.6503C42.9572 38.5934 41.8376 39.3415 40.6054 39.8519C39.3732 40.3623 38.0525 40.625 36.7188 40.625H14.0625Z" fill="white"/>
</svg>
