<svg width="50" height="50" viewBox="0 0 50 50" fill="none" xmlns="http://www.w3.org/2000/svg">
<path d="M6.25 13.5417C6.25 12.1603 6.79873 10.8356 7.77549 9.85881C8.75224 8.88206 10.077 8.33333 11.4583 8.33333H40.1792C40.5958 8.33333 40.8021 8.33333 40.9708 8.39166C41.1183 8.4436 41.2521 8.52806 41.3625 8.63878C41.4728 8.7495 41.5569 8.88363 41.6083 9.03124C41.6667 9.19791 41.6667 9.40625 41.6667 9.82291C41.6667 12.3146 41.6667 13.5625 41.3167 14.5646C41.0063 15.4506 40.5003 16.2552 39.8363 16.9189C39.1724 17.5825 38.3674 18.088 37.4812 18.3979C36.4792 18.75 35.2292 18.75 32.7375 18.75H31.25M6.25 13.5417C6.25 14.923 6.79873 16.2478 7.77549 17.2245C8.75224 18.2013 10.077 18.75 11.4583 18.75H39.5833C41.5479 18.75 42.5292 18.75 43.1396 19.3604C43.75 19.9708 43.75 20.9521 43.75 22.9167V27.0833M6.25 13.5417V35.4167C6.25 39.3458 6.25 41.3083 7.47083 42.5292C8.69167 43.75 10.6542 43.75 14.5833 43.75H39.5833C41.5479 43.75 42.5292 43.75 43.1396 43.1396C43.75 42.5292 43.75 41.5479 43.75 39.5833V35.4167M43.75 27.0833H35.4167C33.4521 27.0833 32.4708 27.0833 31.8604 27.6937C31.25 28.3042 31.25 29.2854 31.25 31.25C31.25 33.2146 31.25 34.1958 31.8604 34.8062C32.4708 35.4167 33.4521 35.4167 35.4167 35.4167H43.75M43.75 27.0833V35.4167" stroke="white" stroke-width="4.16667"/>
</svg>
