<svg width="16" height="16" viewBox="0 0 16 16" fill="none" xmlns="http://www.w3.org/2000/svg">
<path fill-rule="evenodd" clip-rule="evenodd" d="M9 1.82857H4V0H9C10.3261 0 11.5979 0.481631 12.5355 1.33894C13.4732 2.19625 14 3.35901 14 4.57143V5.48571C14 6.69813 13.4732 7.86089 12.5355 8.7182C11.5979 9.57551 10.3261 10.0571 9 10.0571H4V8.22857H9C9.79565 8.22857 10.5587 7.93959 11.1213 7.42521C11.6839 6.91082 12 6.21316 12 5.48571V4.57143C12 3.84398 11.6839 3.14632 11.1213 2.63194C10.5587 2.11755 9.79565 1.82857 9 1.82857Z" fill="#3EB56A"/>
<path fill-rule="evenodd" clip-rule="evenodd" d="M4 0C4.26522 0 4.51957 0.0963262 4.70711 0.267788C4.89464 0.43925 5 0.671802 5 0.914286V15.0857C5 15.3282 4.89464 15.5608 4.70711 15.7322C4.51957 15.9037 4.26522 16 4 16C3.73478 16 3.48043 15.9037 3.29289 15.7322C3.10536 15.5608 3 15.3282 3 15.0857V0.914286C3 0.671802 3.10536 0.43925 3.29289 0.267788C3.48043 0.0963262 3.73478 0 4 0Z" fill="#3EB56A"/>
<path fill-rule="evenodd" clip-rule="evenodd" d="M0 3.59861C0 3.35613 0.105357 3.12358 0.292893 2.95211C0.48043 2.78065 0.734784 2.68433 1 2.68433H15C15.2652 2.68433 15.5196 2.78065 15.7071 2.95211C15.8946 3.12358 16 3.35613 16 3.59861C16 3.8411 15.8946 4.07365 15.7071 4.24511C15.5196 4.41657 15.2652 4.5129 15 4.5129H1C0.734784 4.5129 0.48043 4.41657 0.292893 4.24511C0.105357 4.07365 0 3.8411 0 3.59861ZM0 6.34147C0 6.09899 0.105357 5.86643 0.292893 5.69497C0.48043 5.52351 0.734784 5.42718 1 5.42718H15C15.2652 5.42718 15.5196 5.52351 15.7071 5.69497C15.8946 5.86643 16 6.09899 16 6.34147C16 6.58395 15.8946 6.8165 15.7071 6.98797C15.5196 7.15943 15.2652 7.25575 15 7.25575H1C0.734784 7.25575 0.48043 7.15943 0.292893 6.98797C0.105357 6.8165 0 6.58395 0 6.34147Z" fill="#3EB56A"/>
</svg>
