<svg width="34" height="33" viewBox="0 0 34 33" fill="none" xmlns="http://www.w3.org/2000/svg">
<path d="M13.467 2.37913C14.3502 2.98907 15.1951 3.39069 15.8901 3.47902C15.5086 4.23452 15.2445 5.04372 15.1068 5.87878C13.9869 5.63047 12.922 5.03886 12.0471 4.43559C11.6282 4.14493 11.2228 3.83519 10.8323 3.50735V7.23031C10.832 7.47944 10.7573 7.72282 10.6177 7.92919C10.4782 8.13556 10.2801 8.29552 10.049 8.38853L10.039 8.39353C9.94556 8.43183 9.8533 8.47296 9.76236 8.51685C9.56738 8.60851 9.28407 8.75016 8.95244 8.94014C8.13788 9.39901 7.38615 9.96141 6.716 10.6133C5.96107 11.3682 5.49445 12.3848 5.23281 13.173C4.89451 14.1829 4.0346 15.1145 2.81139 15.3195C2.72454 15.334 2.64564 15.3788 2.58861 15.4459C2.53159 15.513 2.50011 15.5981 2.49975 15.6861V18.6092C2.49975 18.8841 2.69973 19.1191 2.97137 19.1641C4.01127 19.3374 4.82952 20.0174 5.29114 20.8406C5.90547 21.9386 6.66501 22.9487 7.54925 23.8437C8.31128 24.5839 9.20785 25.1716 10.1906 25.5751C10.6084 25.7511 11.0398 25.8927 11.4805 25.9984L11.4889 26.0018C11.7733 26.0574 12.0295 26.2102 12.2138 26.4339C12.398 26.6577 12.4987 26.9385 12.4988 27.2283V29.3114C12.4988 29.5414 12.6854 29.7281 12.9154 29.7281H14.9985C14.9985 29.0651 15.2619 28.4293 15.7307 27.9605C16.1995 27.4917 16.8353 27.2283 17.4983 27.2283H20.8313C21.4942 27.2283 22.13 27.4917 22.5988 27.9605C23.0676 28.4293 23.331 29.0651 23.331 29.7281H25.4141C25.5246 29.7281 25.6306 29.6842 25.7087 29.606C25.7869 29.5279 25.8308 29.4219 25.8308 29.3114V25.5618C25.8308 25.0902 26.0974 24.6586 26.5174 24.4453L26.539 24.4336L26.6557 24.3669C26.764 24.3019 26.929 24.2003 27.1306 24.0536C27.5339 23.7603 28.0822 23.3054 28.6305 22.6654C29.7187 21.3972 30.8303 19.3858 30.8303 16.3961C30.8303 14.7179 30.5169 13.363 29.982 12.2498C30.5777 11.4602 31.028 10.5709 31.3119 9.6234C31.4785 9.85005 31.6352 10.085 31.7818 10.3283C32.7884 11.9932 33.33 14.0013 33.33 16.3944C33.33 20.0724 31.9418 22.6438 30.5303 24.2919C29.8875 25.043 29.1477 25.7054 28.3305 26.2617V29.3098C28.3307 29.6929 28.2554 30.0723 28.109 30.4263C27.9625 30.7804 27.7477 31.1021 27.4769 31.373C27.2061 31.644 26.8845 31.859 26.5306 32.0057C26.1766 32.1523 25.7973 32.2278 25.4141 32.2278H23.331C22.668 32.2278 22.0322 31.9644 21.5634 31.4957C21.0946 31.0269 20.8313 30.391 20.8313 29.7281H17.4983C17.4983 30.391 17.2349 31.0269 16.7661 31.4957C16.2973 31.9644 15.6615 32.2278 14.9985 32.2278H12.9154C12.1419 32.2278 11.4001 31.9206 10.8532 31.3736C10.3063 30.8267 9.999 30.0849 9.999 29.3114V28.1732C9.73788 28.0852 9.47997 27.9879 9.22574 27.8816C7.94332 27.3524 6.77448 26.5819 5.78275 25.6118C4.73657 24.5528 3.83699 23.3584 3.10802 22.0605C3.054 21.9528 2.97683 21.8584 2.88204 21.7841C2.78725 21.7098 2.67719 21.6573 2.55974 21.6305C1.84478 21.5108 1.19537 21.1416 0.726766 20.5885C0.258163 20.0353 0.000675023 19.3341 0 18.6092V15.6878C0 14.2829 1.01657 13.0847 2.39976 12.8547C2.54475 12.8298 2.75972 12.6848 2.86138 12.3815C3.18135 11.4199 3.80295 9.9917 4.9495 8.84515C5.77652 8.03604 6.70534 7.33802 7.71256 6.76869C7.94143 6.6387 8.14807 6.5276 8.3325 6.43539V1.68087C8.3325 0.117688 10.2156 -0.523914 11.2322 0.487651C11.7822 1.03593 12.5821 1.76586 13.467 2.37746M18.4482 10.3083C17.6316 9.97004 16.9416 9.32677 16.7783 8.45852C16.4813 6.84085 16.7925 5.17048 17.6521 3.76829C18.5117 2.3661 19.8591 1.33099 21.4355 0.861821C23.0119 0.39265 24.706 0.522506 26.1925 1.22644C27.6789 1.93038 28.8528 3.15875 29.4887 4.67557C30.0751 6.08903 30.1573 7.6612 29.7215 9.12811C29.2858 10.595 28.3586 11.8673 27.0956 12.7314C26.3657 13.2297 25.4241 13.1964 24.6075 12.8581L18.4482 10.3083ZM25.7708 10.6083C26.5939 10.0082 27.1688 9.12761 27.3871 8.13266C27.6054 7.13771 27.452 6.09727 26.9557 5.2077C26.4595 4.31814 25.6548 3.64101 24.6935 3.30411C23.7322 2.96722 22.6808 2.99387 21.7378 3.37903C20.8708 3.73748 20.1502 4.37809 19.6925 5.19712C19.2349 6.01615 19.0672 6.96566 19.2164 7.89191L19.2514 7.91858C19.2996 7.95048 19.351 7.97729 19.4047 7.99857L25.5641 10.5483C25.6302 10.5766 25.6996 10.5962 25.7708 10.6066M11.6655 12.2298C11.6655 12.6718 11.4899 13.0957 11.1774 13.4082C10.8649 13.7207 10.441 13.8963 9.999 13.8963C9.55702 13.8963 9.13314 13.7207 8.82061 13.4082C8.50808 13.0957 8.3325 12.6718 8.3325 12.2298C8.3325 11.7878 8.50808 11.3639 8.82061 11.0514C9.13314 10.7389 9.55702 10.5633 9.999 10.5633C10.441 10.5633 10.8649 10.7389 11.1774 11.0514C11.4899 11.3639 11.6655 11.7878 11.6655 12.2298Z" fill="white"/>
</svg>
